<?xml version="1.0" encoding="utf-8"?>
<!-- Generator: Adobe Illustrator 19.0.0, SVG Export Plug-In . SVG Version: 6.00 Build 0)  -->
<svg version="1.1" id="Layer_1" xmlns="http://www.w3.org/2000/svg" xmlns:xlink="http://www.w3.org/1999/xlink" x="0px" y="0px"
	 viewBox="-282.2 129.3 178.4 140.2" style="enable-background:new -282.2 129.3 178.4 140.2;" xml:space="preserve">
<style type="text/css">
	.st0{fill:#192E3F;}
	.st1{fill:#2F5568;}
	.st2{fill:#71D19A;}
	.st3{fill:#34485F;}
	.st4{fill:#54BA82;}
	.st5{fill:#253A4F;}
	.st6{fill:#274C63;}
</style>
<g id="XMLID_161_">
	<g id="XMLID_119_">
		<g id="XMLID_269_">
			<polygon id="XMLID_323_" class="st0" points="-192.8,238.1 -192.8,205.6 -211.9,160 -220.1,194.1 			"/>
			<polygon id="XMLID_297_" class="st1" points="-233.3,129.3 -220.1,194.1 -211.9,160 			"/>
			<polygon id="XMLID_136_" class="st2" points="-220.1,194.1 -233.3,129.3 -277.5,130.5 -282.2,151.8 -255.1,158.8 -269.9,178.8 
							"/>
			<polygon id="XMLID_272_" class="st3" points="-260.9,166.7 -282.2,151.8 -255.1,158.8 			"/>
		</g>
		<polygon id="XMLID_142_" class="st4" points="-220.1,194.1 -269.8,178.8 -192.8,269.5 -192.8,238.1 		"/>
	</g>
	<g id="XMLID_194_">
		<g id="XMLID_584_">
			<polygon id="XMLID_608_" class="st5" points="-192.8,238.1 -192.8,205.6 -173.8,160 -165.5,194.1 			"/>
			<polygon id="XMLID_596_" class="st6" points="-152.7,129.3 -165.5,194.1 -173.8,160 			"/>
			<polygon id="XMLID_594_" class="st2" points="-165.6,194.1 -152.7,129.3 -108.4,130.5 -103.8,151.8 -130.9,158.8 -116.1,178.8 
							"/>
			<polygon id="XMLID_586_" class="st3" points="-125.1,166.7 -103.8,151.8 -130.9,158.8 			"/>
		</g>
		<polygon id="XMLID_195_" class="st4" points="-165.6,194.1 -116.1,178.8 -192.8,269.5 -192.8,238.1 		"/>
	</g>
</g>
</svg>
